<?xml version="1.0" encoding="UTF-8"?><svg xmlns="http://www.w3.org/2000/svg" xmlns:xlink="http://www.w3.org/1999/xlink" width="3750pt" zoomAndPan="magnify" viewBox="0 0 3750 3749.999967" height="3749.999967pt" preserveAspectRatio="xMidYMid meet" version="1.2"><g xml:id="surface1" id="surface1"><rect x="0" width="3750" y="0" height="3749.999967" style="fill:rgb(100%,100%,100%);fill-opacity:1;stroke:none;"/><rect x="0" width="3750" y="0" height="3749.999967" style="fill:rgb(100%,100%,100%);fill-opacity:1;stroke:none;"/><rect x="0" width="3750" y="0" height="3749.999967" style="fill:rgb(26.669312%,26.669312%,26.669312%);fill-opacity:1;stroke:none;"/><path style=" stroke:none;fill-rule:nonzero;fill:rgb(26.669312%,26.669312%,26.669312%);fill-opacity:1;" d="M 3750 1875 C 3750 1905.6875 3749.246094 1936.351562 3747.742188 1967.003906 C 3746.234375 1997.652344 3743.980469 2028.246094 3740.972656 2058.78125 C 3737.964844 2089.320312 3734.207031 2119.765625 3729.707031 2150.121094 C 3725.203125 2180.472656 3719.957031 2210.699219 3713.972656 2240.792969 C 3707.984375 2270.890625 3701.265625 2300.820312 3693.808594 2330.585938 C 3686.351562 2360.355469 3678.171875 2389.917969 3669.261719 2419.285156 C 3660.355469 2448.648438 3650.730469 2477.777344 3640.394531 2506.667969 C 3630.058594 2535.5625 3619.015625 2564.179688 3607.273438 2592.53125 C 3595.53125 2620.882812 3583.097656 2648.925781 3569.980469 2676.664062 C 3556.859375 2704.40625 3543.066406 2731.804688 3528.601562 2758.867188 C 3514.136719 2785.929688 3499.015625 2812.621094 3483.242188 2838.941406 C 3467.464844 2865.261719 3451.054688 2891.179688 3434.003906 2916.695312 C 3416.957031 2942.207031 3399.292969 2967.289062 3381.015625 2991.9375 C 3362.734375 3016.582031 3343.859375 3040.765625 3324.394531 3064.488281 C 3304.925781 3088.207031 3284.890625 3111.4375 3264.28125 3134.171875 C 3243.675781 3156.910156 3222.523438 3179.128906 3200.824219 3200.824219 C 3179.128906 3222.523438 3156.910156 3243.675781 3134.171875 3264.28125 C 3111.4375 3284.890625 3088.207031 3304.925781 3064.488281 3324.394531 C 3040.765625 3343.863281 3016.582031 3362.734375 2991.9375 3381.015625 C 2967.289062 3399.292969 2942.207031 3416.957031 2916.695312 3434.003906 C 2891.179688 3451.054688 2865.261719 3467.464844 2838.941406 3483.242188 C 2812.621094 3499.015625 2785.929688 3514.136719 2758.867188 3528.601562 C 2731.804688 3543.066406 2704.40625 3556.859375 2676.664062 3569.980469 C 2648.925781 3583.097656 2620.882812 3595.53125 2592.53125 3607.273438 C 2564.179688 3619.015625 2535.558594 3630.058594 2506.667969 3640.394531 C 2477.777344 3650.734375 2448.648438 3660.355469 2419.285156 3669.261719 C 2389.917969 3678.171875 2360.355469 3686.351562 2330.585938 3693.808594 C 2300.820312 3701.265625 2270.890625 3707.984375 2240.792969 3713.972656 C 2210.699219 3719.957031 2180.472656 3725.203125 2150.121094 3729.707031 C 2119.765625 3734.207031 2089.320312 3737.964844 2058.78125 3740.972656 C 2028.246094 3743.980469 1997.652344 3746.234375 1967 3747.742188 C 1936.351562 3749.246094 1905.683594 3750 1875 3750 C 1844.3125 3750 1813.648438 3749.246094 1782.996094 3747.742188 C 1752.347656 3746.234375 1721.753906 3743.980469 1691.21875 3740.972656 C 1660.679688 3737.964844 1630.234375 3734.207031 1599.878906 3729.707031 C 1569.527344 3725.203125 1539.300781 3719.957031 1509.207031 3713.972656 C 1479.109375 3707.984375 1449.179688 3701.265625 1419.410156 3693.808594 C 1389.644531 3686.351562 1360.082031 3678.171875 1330.714844 3669.261719 C 1301.351562 3660.355469 1272.222656 3650.730469 1243.332031 3640.394531 C 1214.4375 3630.058594 1185.816406 3619.015625 1157.46875 3607.273438 C 1129.117188 3595.53125 1101.074219 3583.097656 1073.335938 3569.980469 C 1045.59375 3556.859375 1018.195312 3543.066406 991.132812 3528.601562 C 964.070312 3514.136719 937.378906 3499.015625 911.058594 3483.242188 C 884.738281 3467.464844 858.820312 3451.054688 833.304688 3434.003906 C 807.792969 3416.957031 782.710938 3399.292969 758.0625 3381.015625 C 733.417969 3362.734375 709.234375 3343.859375 685.511719 3324.394531 C 661.792969 3304.925781 638.5625 3284.890625 615.828125 3264.28125 C 593.089844 3243.675781 570.871094 3222.523438 549.175781 3200.824219 C 527.476562 3179.128906 506.324219 3156.910156 485.714844 3134.171875 C 465.109375 3111.4375 445.070312 3088.207031 425.605469 3064.488281 C 406.136719 3040.765625 387.265625 3016.582031 368.984375 2991.9375 C 350.707031 2967.289062 333.042969 2942.207031 315.996094 2916.695312 C 298.945312 2891.179688 282.535156 2865.261719 266.757812 2838.941406 C 250.984375 2812.621094 235.863281 2785.929688 221.398438 2758.867188 C 206.933594 2731.804688 193.140625 2704.40625 180.019531 2676.664062 C 166.898438 2648.925781 154.46875 2620.882812 142.726562 2592.53125 C 130.984375 2564.179688 119.941406 2535.5625 109.605469 2506.667969 C 99.265625 2477.777344 89.644531 2448.648438 80.738281 2419.285156 C 71.828125 2389.917969 63.648438 2360.355469 56.191406 2330.585938 C 48.734375 2300.820312 42.015625 2270.890625 36.027344 2240.792969 C 30.042969 2210.699219 24.796875 2180.472656 20.292969 2150.121094 C 15.792969 2119.765625 12.035156 2089.320312 9.027344 2058.78125 C 6.019531 2028.246094 3.765625 1997.652344 2.257812 1967.003906 C 0.753906 1936.351562 0 1905.6875 0 1875 C 0 1844.3125 0.753906 1813.648438 2.257812 1782.996094 C 3.765625 1752.347656 6.019531 1721.753906 9.027344 1691.21875 C 12.035156 1660.679688 15.792969 1630.234375 20.292969 1599.878906 C 24.796875 1569.527344 30.042969 1539.300781 36.027344 1509.207031 C 42.015625 1479.109375 48.734375 1449.179688 56.191406 1419.410156 C 63.648438 1389.644531 71.828125 1360.082031 80.738281 1330.714844 C 89.644531 1301.351562 99.265625 1272.222656 109.605469 1243.332031 C 119.941406 1214.4375 130.984375 1185.820312 142.726562 1157.46875 C 154.46875 1129.117188 166.898438 1101.074219 180.019531 1073.335938 C 193.140625 1045.59375 206.933594 1018.195312 221.398438 991.132812 C 235.863281 964.070312 250.984375 937.378906 266.757812 911.058594 C 282.535156 884.738281 298.945312 858.820312 315.996094 833.304688 C 333.042969 807.792969 350.707031 782.710938 368.984375 758.0625 C 387.265625 733.417969 406.136719 709.234375 425.605469 685.511719 C 445.070312 661.792969 465.109375 638.5625 485.714844 615.828125 C 506.324219 593.089844 527.476562 570.871094 549.175781 549.175781 C 570.871094 527.476562 593.089844 506.324219 615.828125 485.714844 C 638.5625 465.109375 661.792969 445.074219 685.511719 425.605469 C 709.234375 406.136719 733.417969 387.265625 758.0625 368.984375 C 782.710938 350.707031 807.792969 333.042969 833.304688 315.996094 C 858.820312 298.945312 884.738281 282.535156 911.058594 266.757812 C 937.378906 250.984375 964.070312 235.863281 991.132812 221.398438 C 1018.195312 206.933594 1045.59375 193.140625 1073.335938 180.019531 C 1101.074219 166.898438 1129.117188 154.46875 1157.46875 142.726562 C 1185.816406 130.984375 1214.4375 119.941406 1243.332031 109.605469 C 1272.222656 99.265625 1301.351562 89.644531 1330.714844 80.738281 C 1360.082031 71.828125 1389.644531 63.648438 1419.414062 56.191406 C 1449.179688 48.734375 1479.109375 42.015625 1509.207031 36.027344 C 1539.300781 30.042969 1569.527344 24.796875 1599.878906 20.292969 C 1630.234375 15.792969 1660.679688 12.035156 1691.21875 9.027344 C 1721.753906 6.019531 1752.347656 3.765625 1782.996094 2.257812 C 1813.648438 0.753906 1844.3125 0 1875 0 C 1905.683594 0 1936.351562 0.753906 1967 2.257812 C 1997.652344 3.765625 2028.246094 6.019531 2058.78125 9.027344 C 2089.320312 12.035156 2119.765625 15.792969 2150.121094 20.292969 C 2180.472656 24.796875 2210.699219 30.042969 2240.792969 36.027344 C 2270.890625 42.015625 2300.820312 48.734375 2330.585938 56.191406 C 2360.355469 63.648438 2389.917969 71.828125 2419.285156 80.738281 C 2448.648438 89.644531 2477.777344 99.265625 2506.667969 109.605469 C 2535.558594 119.941406 2564.179688 130.984375 2592.53125 142.726562 C 2620.882812 154.46875 2648.925781 166.898438 2676.664062 180.019531 C 2704.40625 193.140625 2731.804688 206.933594 2758.867188 221.398438 C 2785.929688 235.863281 2812.621094 250.984375 2838.941406 266.757812 C 2865.261719 282.535156 2891.179688 298.945312 2916.695312 315.996094 C 2942.207031 333.042969 2967.289062 350.707031 2991.9375 368.984375 C 3016.582031 387.265625 3040.765625 406.136719 3064.488281 425.605469 C 3088.207031 445.074219 3111.4375 465.109375 3134.171875 485.714844 C 3156.910156 506.324219 3179.128906 527.476562 3200.824219 549.175781 C 3222.523438 570.871094 3243.675781 593.089844 3264.28125 615.828125 C 3284.890625 638.5625 3304.925781 661.792969 3324.394531 685.511719 C 3343.863281 709.234375 3362.734375 733.417969 3381.015625 758.0625 C 3399.292969 782.710938 3416.957031 807.792969 3434.003906 833.304688 C 3451.054688 858.820312 3467.464844 884.738281 3483.242188 911.058594 C 3499.015625 937.378906 3514.136719 964.070312 3528.601562 991.132812 C 3543.066406 1018.195312 3556.859375 1045.59375 3569.980469 1073.335938 C 3583.097656 1101.074219 3595.53125 1129.117188 3607.273438 1157.46875 C 3619.015625 1185.820312 3630.058594 1214.4375 3640.394531 1243.332031 C 3650.730469 1272.222656 3660.355469 1301.351562 3669.261719 1330.714844 C 3678.171875 1360.082031 3686.351562 1389.644531 3693.808594 1419.414062 C 3701.265625 1449.179688 3707.984375 1479.109375 3713.972656 1509.207031 C 3719.957031 1539.300781 3725.203125 1569.527344 3729.707031 1599.878906 C 3734.207031 1630.234375 3737.964844 1660.679688 3740.972656 1691.21875 C 3743.980469 1721.753906 3746.234375 1752.347656 3747.742188 1782.996094 C 3749.246094 1813.648438 3750 1844.3125 3750 1875 Z M 3750 1875 "/><path style=" stroke:none;fill-rule:nonzero;fill:rgb(100%,100%,100%);fill-opacity:1;" d="M 2270.507812 2204.847656 C 2283.433594 2160.386719 2278.492188 2119.664062 2256.886719 2089.453125 C 2237.183594 2061.695312 2203.859375 2045.507812 2163.757812 2043.785156 L 1404.089844 2033.9375 C 1402.929688 2033.949219 1401.789062 2033.820312 1400.660156 2033.546875 C 1399.535156 2033.269531 1398.460938 2032.859375 1397.441406 2032.3125 C 1396.417969 2031.765625 1395.480469 2031.097656 1394.628906 2030.3125 C 1393.777344 2029.527344 1393.035156 2028.648438 1392.40625 2027.671875 C 1391.789062 2026.664062 1391.28125 2025.601562 1390.886719 2024.488281 C 1390.492188 2023.371094 1390.214844 2022.226562 1390.054688 2021.054688 C 1389.898438 2019.882812 1389.863281 2018.707031 1389.953125 2017.523438 C 1390.039062 2016.34375 1390.246094 2015.1875 1390.578125 2014.050781 C 1390.917969 2013.121094 1391.324219 2012.21875 1391.796875 2011.34375 C 1392.265625 2010.472656 1392.792969 2009.636719 1393.382812 2008.839844 C 1393.96875 2008.039062 1394.609375 2007.289062 1395.304688 2006.578125 C 1396 2005.871094 1396.742188 2005.214844 1397.527344 2004.613281 C 1398.316406 2004.011719 1399.140625 2003.464844 1400.003906 2002.980469 C 1400.867188 2002.492188 1401.761719 2002.070312 1402.683594 2001.707031 C 1403.609375 2001.347656 1404.554688 2001.054688 1405.519531 2000.828125 C 1406.484375 2000.601562 1407.460938 2000.441406 1408.449219 2000.355469 L 2174.925781 1990.503906 C 2265.746094 1986.21875 2364.441406 1912.683594 2398.972656 1822.59375 L 2442.917969 1708.410156 C 2443.902344 1706.097656 2444.503906 1703.691406 2444.722656 1701.1875 C 2444.941406 1698.683594 2444.765625 1696.210938 2444.203125 1693.761719 C 2442.722656 1687.183594 2441.113281 1680.640625 2439.375 1674.128906 C 2437.632812 1667.617188 2435.757812 1661.140625 2433.753906 1654.703125 C 2431.75 1648.269531 2429.613281 1641.875 2427.351562 1635.527344 C 2425.085938 1629.175781 2422.695312 1622.875 2420.179688 1616.621094 C 2417.660156 1610.367188 2415.015625 1604.167969 2412.246094 1598.023438 C 2409.476562 1591.878906 2406.582031 1585.789062 2403.566406 1579.761719 C 2400.546875 1573.734375 2397.410156 1567.769531 2394.152344 1561.867188 C 2390.894531 1555.964844 2387.515625 1550.132812 2384.023438 1544.367188 C 2380.527344 1538.601562 2376.917969 1532.910156 2373.191406 1527.292969 C 2369.464844 1521.675781 2365.628906 1516.132812 2361.679688 1510.671875 C 2357.730469 1505.207031 2353.667969 1499.828125 2349.5 1494.53125 C 2345.332031 1489.230469 2341.058594 1484.019531 2336.679688 1478.894531 C 2332.300781 1473.769531 2327.820312 1468.734375 2323.238281 1463.792969 C 2318.652344 1458.847656 2313.972656 1454 2309.195312 1449.246094 C 2304.414062 1444.492188 2299.539062 1439.835938 2294.570312 1435.28125 C 2289.601562 1430.722656 2284.542969 1426.269531 2279.394531 1421.917969 C 2274.246094 1417.566406 2269.011719 1413.324219 2263.691406 1409.183594 C 2258.371094 1405.042969 2252.96875 1401.015625 2247.484375 1397.09375 C 2242 1393.171875 2236.4375 1389.367188 2230.800781 1385.671875 C 2225.160156 1381.976562 2219.449219 1378.398438 2213.667969 1374.933594 C 2207.882812 1371.46875 2202.03125 1368.125 2196.113281 1364.898438 C 2190.195312 1361.671875 2184.210938 1358.566406 2178.167969 1355.582031 C 2172.125 1352.597656 2166.019531 1349.738281 2159.859375 1347 C 2153.699219 1344.265625 2147.484375 1341.65625 2141.21875 1339.167969 C 2134.953125 1336.683594 2128.636719 1334.328125 2122.277344 1332.097656 C 2115.914062 1329.871094 2109.507812 1327.769531 2103.0625 1325.800781 C 2096.613281 1323.832031 2090.128906 1321.992188 2083.609375 1320.285156 C 2077.085938 1318.578125 2070.535156 1317.003906 2063.949219 1315.5625 C 2057.363281 1314.125 2050.75 1312.816406 2044.113281 1311.640625 C 2037.476562 1310.46875 2030.816406 1309.429688 2024.136719 1308.527344 C 2017.457031 1307.625 2010.757812 1306.855469 2004.046875 1306.222656 C 1997.335938 1305.59375 1990.613281 1305.097656 1983.882812 1304.738281 C 1977.152344 1304.375 1970.414062 1304.152344 1963.675781 1304.066406 C 1956.933594 1303.980469 1950.195312 1304.03125 1943.457031 1304.214844 C 1936.71875 1304.402344 1929.984375 1304.726562 1923.257812 1305.183594 C 1916.535156 1305.644531 1909.820312 1306.238281 1903.117188 1306.96875 C 1896.417969 1307.703125 1889.734375 1308.566406 1883.066406 1309.570312 C 1876.402344 1310.574219 1869.757812 1311.710938 1863.136719 1312.980469 C 1856.515625 1314.25 1849.925781 1315.65625 1843.363281 1317.195312 C 1836.796875 1318.734375 1830.269531 1320.402344 1823.773438 1322.207031 C 1817.277344 1324.011719 1810.820312 1325.945312 1804.402344 1328.007812 C 1797.988281 1330.074219 1791.613281 1332.265625 1785.285156 1334.589844 C 1778.957031 1336.910156 1772.679688 1339.363281 1766.449219 1341.9375 C 1760.21875 1344.515625 1754.046875 1347.21875 1747.925781 1350.046875 C 1741.808594 1352.875 1735.746094 1355.824219 1729.746094 1358.898438 C 1723.746094 1361.96875 1717.8125 1365.164062 1711.941406 1368.476562 C 1706.070312 1371.789062 1700.269531 1375.222656 1694.539062 1378.769531 C 1688.804688 1382.320312 1683.148438 1385.980469 1677.566406 1389.761719 C 1671.980469 1393.539062 1666.476562 1397.425781 1661.050781 1401.429688 C 1655.625 1405.429688 1650.285156 1409.539062 1645.027344 1413.757812 C 1639.765625 1417.972656 1634.59375 1422.296875 1629.511719 1426.722656 C 1624.425781 1431.148438 1619.433594 1435.675781 1614.535156 1440.308594 C 1609.632812 1444.9375 1604.828125 1449.664062 1600.121094 1454.488281 C 1595.410156 1459.3125 1590.800781 1464.226562 1586.292969 1469.238281 C 1581.785156 1474.25 1577.378906 1479.351562 1573.074219 1484.539062 C 1568.769531 1489.726562 1564.574219 1495.003906 1560.484375 1500.363281 C 1556.398438 1505.722656 1552.417969 1511.160156 1548.550781 1516.683594 C 1544.679688 1522.203125 1540.925781 1527.800781 1537.28125 1533.472656 C 1533.640625 1539.144531 1530.117188 1544.890625 1526.707031 1550.703125 C 1523.296875 1556.519531 1520.007812 1562.402344 1516.835938 1568.351562 C 1513.664062 1574.300781 1510.617188 1580.3125 1507.6875 1586.382812 C 1504.761719 1592.457031 1501.957031 1598.585938 1499.28125 1604.769531 C 1496.601562 1610.957031 1494.046875 1617.195312 1491.621094 1623.484375 C 1489.195312 1629.773438 1486.898438 1636.109375 1484.730469 1642.492188 C 1480.777344 1639.527344 1476.730469 1636.695312 1472.589844 1633.996094 C 1468.453125 1631.296875 1464.230469 1628.734375 1459.921875 1626.316406 C 1455.613281 1623.894531 1451.226562 1621.621094 1446.769531 1619.492188 C 1442.3125 1617.359375 1437.785156 1615.378906 1433.195312 1613.546875 C 1428.609375 1611.714844 1423.960938 1610.039062 1419.261719 1608.511719 C 1414.5625 1606.988281 1409.816406 1605.621094 1405.027344 1604.410156 C 1400.234375 1603.195312 1395.410156 1602.144531 1390.550781 1601.253906 C 1385.6875 1600.359375 1380.804688 1599.628906 1375.894531 1599.058594 C 1370.988281 1598.488281 1366.066406 1598.082031 1361.128906 1597.835938 C 1356.195312 1597.59375 1351.257812 1597.511719 1346.316406 1597.59375 C 1341.375 1597.675781 1336.441406 1597.917969 1331.515625 1598.324219 C 1326.59375 1598.734375 1321.6875 1599.300781 1316.796875 1600.035156 C 1311.910156 1600.765625 1307.054688 1601.65625 1302.226562 1602.710938 C 1297.398438 1603.761719 1292.609375 1604.972656 1287.859375 1606.339844 C 1283.113281 1607.710938 1278.414062 1609.234375 1273.765625 1610.914062 C 1269.121094 1612.589844 1264.53125 1614.421875 1260.007812 1616.402344 C 1255.480469 1618.386719 1251.023438 1620.515625 1246.636719 1622.792969 C 1242.25 1625.066406 1237.945312 1627.488281 1233.71875 1630.046875 C 1229.492188 1632.609375 1225.355469 1635.304688 1221.308594 1638.140625 C 1217.257812 1640.972656 1213.308594 1643.9375 1209.457031 1647.035156 C 1205.605469 1650.128906 1201.859375 1653.347656 1198.21875 1656.691406 C 1194.578125 1660.03125 1191.054688 1663.492188 1187.644531 1667.066406 C 1184.234375 1670.640625 1180.941406 1674.328125 1177.777344 1678.121094 C 1174.609375 1681.910156 1171.570312 1685.804688 1168.65625 1689.796875 C 1165.746094 1693.792969 1162.972656 1697.878906 1160.332031 1702.054688 C 1157.691406 1706.230469 1155.191406 1710.488281 1152.832031 1714.832031 C 1150.472656 1719.175781 1148.257812 1723.589844 1146.191406 1728.078125 C 1144.125 1732.566406 1142.207031 1737.117188 1140.4375 1741.730469 C 1138.671875 1746.347656 1137.058594 1751.015625 1135.601562 1755.734375 C 1134.140625 1760.457031 1132.839844 1765.222656 1131.699219 1770.027344 C 1130.554688 1774.835938 1129.570312 1779.675781 1128.746094 1784.546875 C 1127.921875 1789.421875 1127.257812 1794.316406 1126.757812 1799.230469 C 1125.480469 1812.367188 1125.308594 1825.519531 1126.242188 1838.6875 C 1127.175781 1851.851562 1129.203125 1864.847656 1132.324219 1877.671875 C 1127.199219 1877.820312 1122.078125 1878.085938 1116.964844 1878.480469 C 1111.851562 1878.871094 1106.753906 1879.386719 1101.664062 1880.023438 C 1096.578125 1880.660156 1091.507812 1881.421875 1086.457031 1882.304688 C 1081.40625 1883.1875 1076.378906 1884.191406 1071.375 1885.316406 C 1066.371094 1886.441406 1061.398438 1887.6875 1056.457031 1889.050781 C 1051.511719 1890.417969 1046.605469 1891.898438 1041.734375 1893.503906 C 1036.863281 1895.105469 1032.035156 1896.824219 1027.246094 1898.65625 C 1022.457031 1900.492188 1017.714844 1902.441406 1013.023438 1904.503906 C 1008.328125 1906.570312 1003.6875 1908.746094 999.097656 1911.03125 C 994.507812 1913.320312 989.976562 1915.71875 985.5 1918.222656 C 981.027344 1920.730469 976.617188 1923.34375 972.269531 1926.0625 C 967.921875 1928.78125 963.644531 1931.605469 959.433594 1934.53125 C 955.21875 1937.457031 951.082031 1940.480469 947.015625 1943.605469 C 942.953125 1946.730469 938.964844 1949.953125 935.054688 1953.269531 C 931.144531 1956.589844 927.316406 1960 923.570312 1963.5 C 919.824219 1967.003906 916.167969 1970.59375 912.59375 1974.273438 C 909.023438 1977.953125 905.539062 1981.714844 902.148438 1985.5625 C 898.757812 1989.410156 895.464844 1993.335938 892.261719 1997.339844 C 889.0625 2001.347656 885.957031 2005.429688 882.953125 2009.582031 C 879.949219 2013.738281 877.046875 2017.964844 874.246094 2022.261719 C 871.449219 2026.558594 868.753906 2030.917969 866.164062 2035.34375 C 863.574219 2039.769531 861.089844 2044.253906 858.71875 2048.800781 C 856.34375 2053.34375 854.082031 2057.945312 851.929688 2062.601562 C 849.777344 2067.253906 847.742188 2071.960938 845.816406 2076.710938 C 843.890625 2081.464844 842.082031 2086.261719 840.390625 2091.101562 C 838.695312 2095.941406 837.121094 2100.820312 835.664062 2105.738281 C 834.207031 2110.652344 832.867188 2115.601562 831.648438 2120.582031 C 830.429688 2125.5625 829.332031 2130.570312 828.355469 2135.605469 C 827.375 2140.636719 826.519531 2145.691406 825.789062 2150.769531 C 825.054688 2155.84375 824.445312 2160.933594 823.957031 2166.039062 C 823.46875 2171.140625 823.101562 2176.257812 822.863281 2181.378906 C 822.621094 2186.5 822.503906 2191.625 822.507812 2196.753906 C 822.621094 2212.230469 823.644531 2227.648438 825.585938 2243.003906 C 825.722656 2243.878906 825.933594 2244.734375 826.21875 2245.574219 C 826.503906 2246.410156 826.863281 2247.21875 827.285156 2247.992188 C 827.710938 2248.769531 828.203125 2249.503906 828.753906 2250.195312 C 829.308594 2250.886719 829.914062 2251.523438 830.578125 2252.109375 C 831.242188 2252.695312 831.953125 2253.21875 832.707031 2253.683594 C 833.460938 2254.144531 834.25 2254.539062 835.074219 2254.863281 C 835.894531 2255.191406 836.742188 2255.445312 837.605469 2255.621094 C 838.472656 2255.800781 839.347656 2255.90625 840.234375 2255.933594 L 2242.234375 2255.933594 C 2243.238281 2255.90625 2244.230469 2255.804688 2245.214844 2255.625 C 2246.199219 2255.441406 2247.164062 2255.1875 2248.109375 2254.851562 C 2249.054688 2254.519531 2249.96875 2254.117188 2250.847656 2253.640625 C 2251.730469 2253.164062 2252.566406 2252.621094 2253.363281 2252.015625 C 2254.160156 2251.40625 2254.902344 2250.738281 2255.59375 2250.015625 C 2256.285156 2249.289062 2256.914062 2248.515625 2257.484375 2247.691406 C 2258.054688 2246.867188 2258.554688 2246.003906 2258.988281 2245.101562 C 2259.421875 2244.199219 2259.78125 2243.269531 2260.070312 2242.308594 Z M 2512.207031 1716.722656 C 2505.214844 1716.5625 2498.242188 1716.890625 2491.296875 1717.710938 C 2490.058594 1717.800781 2488.859375 1718.066406 2487.703125 1718.511719 C 2486.542969 1718.957031 2485.476562 1719.558594 2484.496094 1720.324219 C 2483.519531 1721.085938 2482.671875 1721.976562 2481.960938 1722.988281 C 2481.246094 1724.003906 2480.695312 1725.101562 2480.308594 1726.28125 L 2450.683594 1829.332031 C 2437.757812 1873.792969 2442.625 1914.515625 2464.234375 1944.835938 C 2484.007812 1972.59375 2517.371094 1988.527344 2557.46875 1990.429688 L 2719.226562 2000.355469 C 2720.378906 2000.328125 2721.515625 2000.449219 2722.636719 2000.714844 C 2723.757812 2000.980469 2724.828125 2001.382812 2725.847656 2001.917969 C 2726.863281 2002.457031 2727.800781 2003.117188 2728.652344 2003.894531 C 2729.503906 2004.667969 2730.242188 2005.539062 2730.871094 2006.507812 C 2732.089844 2008.570312 2732.863281 2010.789062 2733.1875 2013.167969 C 2733.511719 2015.542969 2733.359375 2017.886719 2732.738281 2020.203125 C 2732.394531 2021.132812 2731.988281 2022.03125 2731.515625 2022.90625 C 2731.042969 2023.777344 2730.511719 2024.609375 2729.921875 2025.40625 C 2729.332031 2026.203125 2728.6875 2026.953125 2727.992188 2027.660156 C 2727.296875 2028.363281 2726.554688 2029.015625 2725.765625 2029.617188 C 2724.976562 2030.21875 2724.148438 2030.757812 2723.285156 2031.242188 C 2722.417969 2031.722656 2721.523438 2032.144531 2720.597656 2032.5 C 2719.671875 2032.855469 2718.726562 2033.144531 2717.761719 2033.367188 C 2716.796875 2033.589844 2715.820312 2033.742188 2714.832031 2033.824219 L 2546.375 2043.675781 C 2455.042969 2047.960938 2357.007812 2121.460938 2322.398438 2211.621094 L 2310.058594 2243.078125 C 2309.910156 2243.425781 2309.785156 2243.777344 2309.683594 2244.140625 C 2309.582031 2244.503906 2309.503906 2244.871094 2309.449219 2245.242188 C 2309.390625 2245.613281 2309.359375 2245.988281 2309.351562 2246.363281 C 2309.34375 2246.742188 2309.359375 2247.117188 2309.398438 2247.492188 C 2309.4375 2247.863281 2309.5 2248.234375 2309.582031 2248.601562 C 2309.667969 2248.96875 2309.777344 2249.328125 2309.910156 2249.679688 C 2310.039062 2250.03125 2310.191406 2250.375 2310.367188 2250.710938 C 2310.542969 2251.042969 2310.734375 2251.363281 2310.953125 2251.671875 C 2311.164062 2251.980469 2311.398438 2252.277344 2311.652344 2252.554688 C 2311.902344 2252.832031 2312.171875 2253.097656 2312.457031 2253.339844 C 2312.742188 2253.585938 2313.042969 2253.8125 2313.355469 2254.019531 C 2313.671875 2254.226562 2313.996094 2254.414062 2314.332031 2254.582031 C 2314.671875 2254.746094 2315.019531 2254.890625 2315.375 2255.015625 C 2315.730469 2255.136719 2316.089844 2255.238281 2316.460938 2255.3125 C 2316.828125 2255.390625 2317.199219 2255.445312 2317.574219 2255.476562 C 2317.949219 2255.503906 2318.324219 2255.511719 2318.699219 2255.492188 L 2897.605469 2255.492188 C 2898.425781 2255.496094 2899.242188 2255.429688 2900.050781 2255.296875 C 2900.863281 2255.167969 2901.65625 2254.972656 2902.433594 2254.714844 C 2903.210938 2254.453125 2903.964844 2254.136719 2904.691406 2253.753906 C 2905.417969 2253.375 2906.109375 2252.9375 2906.765625 2252.445312 C 2907.421875 2251.953125 2908.035156 2251.414062 2908.605469 2250.820312 C 2909.171875 2250.230469 2909.691406 2249.597656 2910.15625 2248.921875 C 2910.621094 2248.246094 2911.03125 2247.539062 2911.382812 2246.800781 C 2911.738281 2246.058594 2912.027344 2245.292969 2912.253906 2244.507812 C 2917.332031 2226.21875 2921.160156 2207.671875 2923.742188 2188.867188 C 2926.324219 2170.0625 2927.632812 2151.171875 2927.671875 2132.191406 C 2927.855469 1903.785156 2741.417969 1717.53125 2512.464844 1717.53125 "/></g></svg>